# xmcd
#
# Track frame offsets:
#	150
#	17666
#	36226
#	50265
#	73425
#	90235
#	105177
#	122577
#	138659
#	156095
#	168935
#	183711
#	200127
#	222401
#	236187
#
# Disc length: 3352 seconds
#
# Revision: 1
# Processed by: cddbd v1.5.2PL0 Copyright (c) Steve Scherf et al.
# Submitted via: audiograbber 1.83.01
#
DISCID=d70d160f
DTITLE=Various Artist - Funk Les plus grands standarts #1
DYEAR=2017
DGENRE=Funk
TTITLE0=Imagination - Just An Illusion
TTITLE1=Gloria Gaynor - Reach Out I'll Be There
TTITLE2=Carol Douglas - Dancing Queen
TTITLE3=Irene Cara - Fame
TTITLE4=Kool and The Gang - Ladies Night (live)
TTITLE5=Maxine Nightingale - Love To Love You
TTITLE6=Tavares - Heaven Must Be Missing An Angel
TTITLE7=The Trammps - Disco Inferno
TTITLE8=Thelma Houston - Could It Be Magic
TTITLE9=Jimmy James and The Vagabonds - Red Red Wine
TTITLE10=Jimmy James and The Vagabonds - I'll Go Where Your Music Takes Me
TTITLE11=Sabrina - Sexy Girl
TTITLE12=Carol Jiani - Hit' n' Run Lover
TTITLE13=Andrea True - More, More, More
TTITLE14=Gloria Gaynor - I Am What I Am
EXTD=
EXTT0=
EXTT1=
EXTT2=
EXTT3=
EXTT4=
EXTT5=
EXTT6=
EXTT7=
EXTT8=
EXTT9=
EXTT10=
EXTT11=
EXTT12=
EXTT13=
EXTT14=
PLAYORDER=
